<?xml version="1.0" encoding="utf-8"?>
<!-- Generator: Adobe Illustrator 16.0.3, SVG Export Plug-In . SVG Version: 6.00 Build 0)  -->
<!DOCTYPE svg PUBLIC "-//W3C//DTD SVG 1.1//EN" "http://www.w3.org/Graphics/SVG/1.1/DTD/svg11.dtd">
<svg version="1.1" id="icon_up" xmlns="http://www.w3.org/2000/svg" xmlns:xlink="http://www.w3.org/1999/xlink" x="0px" y="0px"
	 width="50px" height="50px" viewBox="0 0 50 50" enable-background="new 0 0 50 50" xml:space="preserve">
<circle fill="#FFFFFF" cx="25" cy="25" r="19"/>
<path fill="#408ce0" d="M1,25C1,11.742,11.741,1,25,1c13.258,0,24,10.742,24,24c0,13.256-10.742,24-24,24C11.741,49,1,38.256,1,25z
	 M23.354,13.977L10.241,27.09c-0.909,0.908-0.909,2.381,0,3.281l1.646,1.645c0.91,0.91,2.381,0.91,3.281,0L25,22.184l9.832,9.832
	c0.909,0.91,2.381,0.91,3.28,0l1.646-1.645c0.91-0.91,0.91-2.383,0-3.281L26.646,13.977C25.735,13.068,24.265,13.068,23.354,13.977z
	"/>
</svg>
