<?xml version='1.0' encoding='utf-8'?>
<!DOCTYPE svg PUBLIC '-//W3C//DTD SVG 1.1//EN' 'http://www.w3.org/Graphics/SVG/1.1/DTD/svg11.dtd'>
<svg version="1.1" xmlns="http://www.w3.org/2000/svg" viewBox="0 0 512 512" xmlns:xlink="http://www.w3.org/1999/xlink" enable-background="new 0 0 512 512">
  <g>
    <g>
      <g>
        <path d="m493.6,159.7l-64.1-52.3c-8.7-7.1-21.4-5.9-28.6,2.7l-34.1,40.9v-119.8c0-11.3-9.1-20.4-20.4-20.4h-314.9c-11.3,0-20.4,9.1-20.4,20.4v449.2c0,11.3 9.1,20.4 20.4,20.4h314.8c11.3,0 20.4-9.1 20.4-20.4v-136.5l129.6-155.3c3.6-4.2 10-17.5-2.7-28.9zm-167.7,300.3h-274v-408.3h274v148.3l-100.3,120.2c-1.9,2.3-3.3,4.9-4.1,7.8l-25.4,95c-2.1,7.7 0.5,16 6.7,21 9.5,7.7 19,4.1 21.8,2.7l89.6-42.8c2.6-1.3 5-3.1 6.9-5.3l4.8-5.8v67.2zm-58.5-79l-20.4,9.8 5.8-21.6 14.6,11.8zm33.1-21.4l-32.6-26.3 151.4-181.4 32.5,26.5-151.3,181.2z" style="fill:#408CE0;"/>
        <path d="m110.7,151.1h156.5c11.3,0 20.4-9.1 20.4-20.4 0-11.3-9.1-20.4-20.4-20.4h-156.5c-11.3,0-20.4,9.1-20.4,20.4-1.42109e-14,11.2 9.1,20.4 20.4,20.4z" style="fill:#408CE0;"/>
        <path d="m261.7,233.7c0-11.3-9.1-20.4-20.4-20.4h-130.6c-11.3,0-20.4,9.1-20.4,20.4 0,11.3 9.1,20.4 20.4,20.4h130.6c11.2,0.1 20.4-9.1 20.4-20.4z" style="fill:#408CE0;"/>
      </g>
    </g>
  </g>
</svg>
